{
  "accessors": [
    {
      "bufferView": 2,
      "componentType": 5126,
      "count": 188,
      "max": [
        0.07505606859922409,
        0.07044029235839844,
        0.006675422191619873
      ],
      "min": [
        -0.07901245355606079,
        -0.06808555126190186,
        -0.006572604179382324
      ],
      "type": "VEC3"
    },
    {
      "bufferView": 2,
      "byteOffset": 2256,
      "componentType": 5126,
      "count": 188,
      "max": [
        0.8022050857543945,
        0.719663143157959,
        0.9999809265136719
      ],
      "min": [
        -0.7925353050231934,
        -0.7636260986328125,
        -0.9999960064888
      ],
      "type": "VEC3"
    },
    {
      "bufferView": 1,
      "componentType": 5126,
      "count": 188,
      "max": [
        0.9449359178543091,
        0.9879031181335449
      ],
      "min": [
        0.012096880003809929,
        0.012096880003809929
      ],
      "type": "VEC2"
    },
    {
      "bufferView": 0,
      "componentType": 5125,
      "count": 708,
      "type": "SCALAR"
    }
  ],
  "asset": {
    "extras": {
      "author": "JUST GAME (https://sketchfab.com/JUSTGAME)",
      "license": "CC-BY-4.0 (http://creativecommons.org/licenses/by/4.0/)",
      "source": "https://sketchfab.com/3d-models/bread-816eadd5c57e48a7831b9e979e660ece",
      "title": "Bread"
    },
    "generator": "Sketchfab-16.53.0",
    "version": "2.0"
  },
  "bufferViews": [
    {
      "buffer": 0,
      "byteLength": 2832,
      "name": "floatBufferViews",
      "target": 34963
    },
    {
      "buffer": 0,
      "byteLength": 1504,
      "byteOffset": 2832,
      "byteStride": 8,
      "name": "floatBufferViews",
      "target": 34962
    },
    {
      "buffer": 0,
      "byteLength": 4512,
      "byteOffset": 4336,
      "byteStride": 12,
      "name": "floatBufferViews",
      "target": 34962
    }
  ],
  "buffers": [
    {
      "byteLength": 8848,
      "uri": "scene.bin"
    }
  ],
  "images": [
    {
      "uri": "textures/bread_baseColor.png"
    }
  ],
  "materials": [
    {
      "doubleSided": true,
      "name": "bread",
      "pbrMetallicRoughness": {
        "baseColorTexture": {
          "index": 0
        },
        "metallicFactor": 0.0,
        "roughnessFactor": 0.6
      }
    }
  ],
  "meshes": [
    {
      "name": "bread-material",
      "primitives": [
        {
          "attributes": {
            "NORMAL": 1,
            "POSITION": 0,
            "TEXCOORD_0": 2
          },
          "indices": 3,
          "material": 0,
          "mode": 4
        }
      ]
    }
  ],
  "nodes": [
    {
      "children": [
        1
      ],
      "matrix": [
        1.0,
        0.0,
        0.0,
        0.0,
        0.0,
        2.220446049250313e-16,
        -1.0,
        0.0,
        0.0,
        1.0,
        2.220446049250313e-16,
        0.0,
        0.0,
        0.0,
        0.0,
        1.0
      ],
      "name": "Sketchfab_model"
    },
    {
      "children": [
        2
      ],
      "name": "Collada visual scene group"
    },
    {
      "children": [
        3
      ],
      "matrix": [
        0.9856766,
        0.1751151,
        -0.03057189,
        0.0,
        0.09599243,
        -0.6692408,
        -0.7384781,
        0.0,
        -0.2123531,
        1.027842,
        -0.9590781,
        0.0,
        0.0,
        0.0,
        0.0,
        1.0
      ],
      "name": "bread"
    },
    {
      "mesh": 0,
      "name": "bread-material"
    }
  ],
  "samplers": [
    {
      "magFilter": 9729,
      "minFilter": 9987,
      "wrapS": 10497,
      "wrapT": 10497
    }
  ],
  "scene": 0,
  "scenes": [
    {
      "name": "Sketchfab_Scene",
      "nodes": [
        0
      ]
    }
  ],
  "textures": [
    {
      "sampler": 0,
      "source": 0
    }
  ]
}
